<svg data-name="Layer 1" xmlns="http://www.w3.org/2000/svg" viewBox="0 0 320 204.86"><path class="cls-1" d="M181.92 73c-8.4-4.2-11.1-7.88-11.1-17.32 0-10.36 6-18 16.64-18 5.07 0 14.73 2.57 29.12 7.7L256 24.8l32.62-17a9.48 9.48 0 0 1 5.94-2c7.84 0 12.43 4.46 13.85 13.31a24.84 24.84 0 0 1 .41 4.12c0 3.17-3.31 6.82-9.87 10.87Q260.52 51.69 249 58.64c11.75 2.77 20.74 6.75 26.95 12 4.23 6.41 5.94 17.94.31 23.84-4.88 5.12-11.54 6.52-20 4.33-14.42-3.75-28.22-7.43-42.39-12.22-1 .66-8 6.58-14.27 10.85 9.06 2.76 17 5.73 22.62 11.47 5.9 6 5.69 17.81 0 23.75q-7.32 7.68-20 4.33c-8.71-2.23-14.52-3.79-17.36-4.53-7.29-2-15.4-4.52-24.38-7.56-28.37 19.45-53 35.38-68.61 44.6Q48.77 195.09 30.3 197c-3.92.41-8.17-1.62-12.63-6.08q-9.32-9.31-9.32-25.73c0-7 4.59-10.54 13.64-10.54 6.07 0 12.17 1.22 18.24 1.22 4.19 0 8-.22 11.08-1.56a317.65 317.65 0 0 0 32.08-16.07c13.6-7.87 30.52-19 43.36-26.95-4-2.64-7.26-5.66-8-7.32-4.26-9.74-1.15-21.87 9.76-26.09a24.19 24.19 0 0 1 11.7-1c5.83 1.1 15.18 4.68 25.73 8.45Z"/></svg>
